<svg width="138" height="139" viewBox="0 0 138 139" fill="none" xmlns="http://www.w3.org/2000/svg">
<g clip-path="url(#clip0_10294_111324)">
<path d="M12.0542 2.74555C9.37255 0.0639824 5.02485 0.0639824 2.34321 2.74555C-0.338361 5.42719 -0.338361 9.77489 2.34321 12.4565L125.943 136.056C128.625 138.738 132.973 138.738 135.654 136.056C138.336 133.375 138.336 129.027 135.654 126.346L99.1653 89.8568C100.751 87.218 100.406 83.7434 98.1312 81.4685C92.984 76.3213 86.8143 72.8206 80.2751 70.9666L65.1128 55.8044C80.4365 54.7246 96.1268 60.0425 107.842 71.7577C110.523 74.4391 114.871 74.4391 117.553 71.7577C120.234 69.0756 120.234 64.7283 117.553 62.0462C100.072 44.5652 75.5097 38.48 53.0992 43.7906L42.3768 33.0682C70.5842 22.4282 103.175 29.233 125.776 53.4827C128.361 56.2569 132.706 56.41 135.48 53.8244C138.255 51.2388 138.408 46.8937 135.822 44.1194C107.769 14.0194 66.3228 6.83568 31.8769 22.5684L12.0542 2.74555Z" fill="#05A46E"/>
<path d="M2.17547 44.1128C-0.410175 46.887 -0.257186 51.2321 2.51708 53.8177C5.29142 56.4034 9.63644 56.2502 12.222 53.476C15.0846 50.4046 18.1074 47.613 21.2613 45.1012L11.496 35.3359C8.25556 38.0055 5.1407 40.9311 2.17547 44.1128Z" fill="#05A46E"/>
<path d="M30.1366 54C26.7264 56.3467 23.481 59.0357 20.4487 62.068C17.7671 64.7501 17.7671 69.0974 20.4487 71.7795C23.1302 74.4609 27.478 74.4609 30.1596 71.7795C33.2142 68.7245 36.5389 66.1049 40.0569 63.9206L30.1366 54Z" fill="#05A46E"/>
<path d="M50.1262 73.9609C46.4325 75.8651 42.9665 78.3652 39.8706 81.4614C37.189 84.1428 37.189 88.4908 39.8706 91.1722C42.5522 93.8537 46.8999 93.8537 49.5815 91.1722C52.7804 87.9731 56.5723 85.7283 60.6031 84.4374L50.1262 73.9609Z" fill="#05A46E"/>
<path d="M68.999 124.334C61.414 124.334 55.2656 118.185 55.2656 110.601C55.2656 103.016 61.414 96.8672 68.999 96.8672C76.5839 96.8672 82.7323 103.016 82.7323 110.601C82.7323 118.185 76.5839 124.334 68.999 124.334Z" fill="#05A46E"/>
</g>
<defs>
<clipPath id="clip0_10294_111324">
<rect width="138" height="139" fill="white"/>
</clipPath>
</defs>
</svg>
